<svg xmlns="http://www.w3.org/2000/svg" xmlns:svg="http://www.w3.org/2000/svg" xmlns:xlink="http://www.w3.org/1999/xlink" version="1.0" height="740.0000000002784pt" width="989.9999999998909pt" viewBox="255 66.99999999999966 997.9999999998909 746.0000000002784" ><defs><style type="text/css">
            @font-face {
                font-family: 'lt_regular';
                src: url('https://app.creately.com/d/assets/fonts/lato/lt-regular-webfont.woff2') format('woff2'),
                    url('https://app.creately.com/d/assets/fonts/lato/lt-regular-webfont.woff') format('woff');
                font-weight: normal;
                font-style: normal;
            }
            @font-face {
                font-family: 'noto_regular';
                src: url('https://app.creately.com/d/assets/fonts/noto/noto-regular.woff') format('woff'),
                     url('https://app.creately.com/d/assets/fonts/noto/noto-regular.woff2') format('woff2');
                font-weight: normal;
                font-style: normal;
            }
        p {
            margin: 0;
        }
        </style></defs><defs>
        <style>
            span{ display: inline-block; }
            
        </style>
         <filter id="shadowu81hXnrCPlV"><feDropShadow dx="0" dy="0" stdDeviation="1" flood-color="#e0deda" /></filter>
        </defs><g id="hyN6nmEWz0o"><g transform="translate(260 69.99999999999966)"><rect x="0" y="0" width="989.9999999998909" height="740.0000000002784" fill="rgb(32,41,58)" stroke="#20293a" stroke-width="2" stroke-linecap="round" stroke-linejoin="round" stroke-dasharray="0 0"/></g><g transform="translate(749.9999999999454, 431.00000000013887) rotate(0, 5, 9)" width="10" height="18"><text text-decoration="none" x="5" fill="#4b4b4b" font-size="10pt" font-family="noto_regular"  y="15.200000584125519"></text></g></g><g id="xVikgfxP798"><g><path d="M 1195,607 L 1205.000000130642,607.0016164286063 Q 1215,607.0032328571704 1215,597.0032328571704 L 1215,418 L 1215,239.0010776190568 Q 1215,229.0010776190568 1205.0000000001107,229.00103056145605 L 986,229" fill="none" stroke="#ffffff" stroke-width="2" stroke-linecap="round" stroke-linejoin="round" stroke-dasharray="0 0"/><path d="M 986,229 L 994.695652173913,234.75 L 994.695652173913,223.25 Z" fill="rgb(255,255,255)" stroke="#ffffff" stroke-width="2" stroke-linecap="round" stroke-linejoin="round"/></g></g><g id="YQAcsEHAv5I"><g transform="translate(680 90)"><path d="M 20,40 L 20,40 L 20,40 A 20 20 0 0 1 0 20.000000000000004 L 0,20 L 0,20.000000000000004 A 20 20 0 0 1 20 0 L 80,0 L 80,0 L 80,0 A 20 20 0 0 1 100 20 L 100,20 L 100,20 A 20 20 0 0 1 80 40 L 20,40 Z" fill="rgb(239,168,176)" stroke="#efa8b0" stroke-width="2" stroke-linecap="round" stroke-linejoin="round" stroke-dasharray="0 0"/></g><g transform="translate(714.26, 100.8) rotate(0, 15.74, 9.2)" width="31.48" height="18.4"><text text-decoration="none" x="0.002499809265136932" fill="#ffffff" font-size="10pt" font-family="lt_regular"  y="14.40000057220459">Inicio</text><text text-decoration="none" x="31.477500190734865" fill="#4b4b4b" font-size="10pt" font-family="noto_regular"  y="14.40000057220459"></text></g></g><g id="3oCMkMCCIFj"><g transform="translate(670 190)"><path d="M 60,0 L 0,40 L 60,80 L 120,40 L 60,0 Z" fill="rgb(237,151,79)" stroke="#ed974f" stroke-width="2" stroke-linecap="round" stroke-linejoin="round" stroke-dasharray="0 0"/></g><g transform="translate(680.79, 220.8) rotate(0, 49.21, 9.2)" width="98.42" height="18.4"><text text-decoration="none" x="0.0037481403350838605" fill="#ffffff" font-size="10pt" font-family="lt_regular"  y="14.40000057220459">&#xBF;Ya&#160;</text><text text-decoration="none" x="24.21624942779541" fill="#ffffff" font-size="10pt" font-family="lt_regular"  y="14.40000057220459">es&#160;</text><text text-decoration="none" x="40.44124957084656" fill="#ffffff" font-size="10pt" font-family="lt_regular"  y="14.40000057220459">miembro?</text><text text-decoration="none" x="98.41625185966492" fill="#4b4b4b" font-size="10pt" font-family="noto_regular"  y="14.40000057220459"></text></g></g><g id="wSdu10PsbKZ"><g><path d="M 730,130 L 730,190" fill="none" stroke="#ffffff" stroke-width="2" stroke-linecap="round" stroke-linejoin="round" stroke-dasharray="0 0"/><path d="M 730,190 L 735.75,181.30434782608697 L 724.25,181.30434782608697 Z" fill="rgb(255,255,255)" stroke="#ffffff" stroke-width="2" stroke-linecap="round" stroke-linejoin="round"/></g></g><g id="ToSKjE0P3TN"><g transform="translate(865.9999999999999 189.0010776190568)"><rect x="0" y="0" width="120" height="80" fill="rgb(131,140,241)" stroke="#838cf1" stroke-width="2" stroke-linecap="round" stroke-linejoin="round" stroke-dasharray="0 0"/></g><g transform="translate(876.3649999999999, 201.4010776190568) rotate(0, 49.635, 27.6)" width="99.27" height="55.2"><text text-decoration="none" x="0.0037487840652445925" fill="#ffffff" font-size="10pt" font-family="lt_regular"  y="14.40000057220459">Introducir&#160;</text><text text-decoration="none" x="61.053749690055845" fill="#ffffff" font-size="10pt" font-family="lt_regular"  y="14.40000057220459">correo&#160;</text><text text-decoration="none" x="11.841248402595518" fill="#ffffff" font-size="10pt" font-family="lt_regular"  y="32.80000019073486">electr&#xF3;nico&#160;</text><text text-decoration="none" x="80.55375159740447" fill="#ffffff" font-size="10pt" font-family="lt_regular"  y="32.80000019073486">y&#160;</text><text text-decoration="none" x="17.40999771118164" fill="#ffffff" font-size="10pt" font-family="lt_regular"  y="51.19999980926514">contrase&#xF1;a</text><text text-decoration="none" x="81.86000228881835" fill="#4b4b4b" font-size="10pt" font-family="noto_regular"  y="51.19999980926514"></text></g></g><g id="5LzDWTnLPNR"><mask id="3341c" x="776" y="215" width="104" height="29" maskUnits="userSpaceOnUse"><rect x="776" y="215" width="104" height="29" fill="white" /><rect x="819.78" y="217.30053880188854" width="16.439999999999998" height="24.4" fill="black" /></mask><g mask="url(#3341c)"><path d="M 790,230 L 818,230 Q 818,230 828,230 Q 837.0010776154375,229.00082236293127 837.999999995979,229.0007940350946 L 866,229" fill="none" stroke="#ffffff" stroke-width="2" stroke-linecap="round" stroke-linejoin="round" stroke-dasharray="0 0"/><path d="M 866,229 L 857.304347826087,223.25 L 857.304347826087,234.75 Z" fill="rgb(255,255,255)" stroke="#ffffff" stroke-width="2" stroke-linecap="round" stroke-linejoin="round"/></g><g transform="translate(822.78, 220.30053880188854)" width="10.44" height="18.4"><text text-decoration="none" x="0.0012499999999997513" fill="#ffffff" font-size="10pt" font-family="lt_regular"  y="14.40000057220459">S&#xED;</text><text text-decoration="none" x="10.438749999999999" fill="#4b4b4b" font-size="10pt" font-family="noto_regular"  y="14.40000057220459"></text></g></g><g id="2fwHhcJY2m3"><g transform="translate(470 190)"><path d="M 60,0 L 0,40 L 60,80 L 120,40 L 60,0 Z" fill="rgb(237,151,79)" stroke="#ed974f" stroke-width="2" stroke-linecap="round" stroke-linejoin="round" stroke-dasharray="0 0"/></g><g transform="translate(497.46500000000003, 211.6) rotate(0, 32.535, 18.4)" width="65.07" height="36.8"><text text-decoration="none" x="9.49749961853027" fill="#ffffff" font-size="10pt" font-family="lt_regular"  y="14.40000057220459">&#xBF;Quiere&#160;</text><text text-decoration="none" x="0.0037499999999965894" fill="#ffffff" font-size="10pt" font-family="lt_regular"  y="32.80000019073486">inscribirse?</text><text text-decoration="none" x="65.06625" fill="#4b4b4b" font-size="10pt" font-family="noto_regular"  y="32.80000019073486"></text></g></g><g id="z9iglbAsRsT"><mask id="0aba6" x="576" y="216" width="108" height="28" maskUnits="userSpaceOnUse"><rect x="576" y="216" width="108" height="28" fill="white" /><rect x="618.13" y="217.8" width="23.74" height="24.4" fill="black" /></mask><g mask="url(#0aba6)"><path d="M 670,230 L 590,230" fill="none" stroke="#ffffff" stroke-width="2" stroke-linecap="round" stroke-linejoin="round" stroke-dasharray="0 0"/><path d="M 590,230 L 598.695652173913,235.75 L 598.695652173913,224.25 Z" fill="rgb(255,255,255)" stroke="#ffffff" stroke-width="2" stroke-linecap="round" stroke-linejoin="round"/></g><g transform="translate(621.13, 220.8)" width="17.74" height="18.4"><text text-decoration="none" x="0.0012494277954093747" fill="#ffffff" font-size="10pt" font-family="lt_regular"  y="14.40000057220459">No</text><text text-decoration="none" x="17.738750572204587" fill="#4b4b4b" font-size="10pt" font-family="noto_regular"  y="14.40000057220459"></text></g></g><g id="zvpLLCGxbLo"><g transform="translate(290 190)"><rect x="0" y="0" width="120" height="80" fill="rgb(131,140,241)" stroke="#838cf1" stroke-width="2" stroke-linecap="round" stroke-linejoin="round" stroke-dasharray="0 0"/></g><g transform="translate(310.63, 202.4) rotate(0, 39.37, 27.6)" width="78.74" height="55.2"><text text-decoration="none" x="8.76375030994415" fill="#ffffff" font-size="10pt" font-family="lt_regular"  y="14.40000057220459">Rellenar&#160;</text><text text-decoration="none" x="59.788749690055845" fill="#ffffff" font-size="10pt" font-family="lt_regular"  y="14.40000057220459">el&#160;</text><text text-decoration="none" x="0.001249547004697149" fill="#ffffff" font-size="10pt" font-family="lt_regular"  y="32.80000019073486">formulario&#160;</text><text text-decoration="none" x="64.2387504529953" fill="#ffffff" font-size="10pt" font-family="lt_regular"  y="32.80000019073486">de&#160;</text><text text-decoration="none" x="7.963749999999997" fill="#ffffff" font-size="10pt" font-family="lt_regular"  y="51.19999980926514">inscripci&#xF3;n</text><text text-decoration="none" x="70.77625" fill="#4b4b4b" font-size="10pt" font-family="noto_regular"  y="51.19999980926514"></text></g></g><g id="v7OYbn6ehkA"><mask id="6d399" x="396" y="216" width="88" height="28" maskUnits="userSpaceOnUse"><rect x="396" y="216" width="88" height="28" fill="white" /><rect x="431.78" y="217.8" width="16.439999999999998" height="24.4" fill="black" /></mask><g mask="url(#6d399)"><path d="M 470,230 L 410,230" fill="none" stroke="#ffffff" stroke-width="2" stroke-linecap="round" stroke-linejoin="round" stroke-dasharray="0 0"/><path d="M 410,230 L 418.69565217391306,235.75 L 418.69565217391306,224.25 Z" fill="rgb(255,255,255)" stroke="#ffffff" stroke-width="2" stroke-linecap="round" stroke-linejoin="round"/></g><g transform="translate(434.78, 220.8)" width="10.44" height="18.4"><text text-decoration="none" x="0.0012499999999997513" fill="#ffffff" font-size="10pt" font-family="lt_regular"  y="14.40000057220459">S&#xED;</text><text text-decoration="none" x="10.438749999999999" fill="#4b4b4b" font-size="10pt" font-family="noto_regular"  y="14.40000057220459"></text></g></g><g id="yfIoHbXgpHs"><g transform="translate(450.0000000000002 330.01993823177594)"><path d="M 74.99999998375962,0 L 0,49.990030993887935 L 74.99999998375962,99.98006198777587 L 149.99999996751924,49.990030993887935 L 74.99999998375962,0 Z" fill="rgb(237,151,79)" stroke="#ed974f" stroke-width="2" stroke-linecap="round" stroke-linejoin="round" stroke-dasharray="0 0"/></g><g transform="translate(464.9449999837598, 361.6099692256639) rotate(0, 60.055, 18.4)" width="120.11" height="36.8"><text text-decoration="none" x="14.329999856948852" fill="#ffffff" font-size="10pt" font-family="lt_regular"  y="14.40000057220459">&#xBF;Iniciar&#160;</text><text text-decoration="none" x="58.9925" fill="#ffffff" font-size="10pt" font-family="lt_regular"  y="14.40000057220459">sesi&#xF3;n&#160;</text><text text-decoration="none" x="99.15500014305115" fill="#ffffff" font-size="10pt" font-family="lt_regular"  y="14.40000057220459">a&#160;</text><text text-decoration="none" x="0.00499909400939913" fill="#ffffff" font-size="10pt" font-family="lt_regular"  y="32.80000019073486">trav&#xE9;s&#160;</text><text text-decoration="none" x="39.34249847412109" fill="#ffffff" font-size="10pt" font-family="lt_regular"  y="32.80000019073486">de&#160;</text><text text-decoration="none" x="57.25499861717224" fill="#ffffff" font-size="10pt" font-family="lt_regular"  y="32.80000019073486">Facebook?</text><text text-decoration="none" x="120.10500090599061" fill="#4b4b4b" font-size="10pt" font-family="noto_regular"  y="32.80000019073486"></text></g></g><g id="ilqirSIelfV"><mask id="0e3c0" x="511" y="256" width="33" height="88" maskUnits="userSpaceOnUse"><rect x="511" y="256" width="33" height="88" fill="white" /><rect x="515.63996215121" y="287.801694623928" width="23.74" height="24.4" fill="black" /></mask><g mask="url(#0e3c0)"><path d="M 530,270 L 530,290.009969115888 Q 530,293.00998567972084 527,300 Q 524.9999999880919,308.0099442539845 524.999999989175,310.009969115888 L 525,330" fill="none" stroke="#ffffff" stroke-width="2" stroke-linecap="round" stroke-linejoin="round" stroke-dasharray="0 0"/><path d="M 525,330 L 530.75,321.30434782608694 L 519.25,321.30434782608694 Z" fill="rgb(255,255,255)" stroke="#ffffff" stroke-width="2" stroke-linecap="round" stroke-linejoin="round"/></g><g transform="translate(518.63996215121, 290.801694623928)" width="17.74" height="18.4"><text text-decoration="none" x="0.0012494277954093747" fill="#ffffff" font-size="10pt" font-family="lt_regular"  y="14.40000057220459">No</text><text text-decoration="none" x="17.738750572204587" fill="#4b4b4b" font-size="10pt" font-family="noto_regular"  y="14.40000057220459"></text></g></g><g id="epqn06X99Wo"><g transform="translate(350 460)"><rect x="0" y="0" width="120" height="60" fill="rgb(131,140,241)" stroke="#838cf1" stroke-width="2" stroke-linecap="round" stroke-linejoin="round" stroke-dasharray="0 0"/></g><g transform="translate(360.445, 471.6) rotate(0, 49.555, 18.4)" width="99.11" height="36.8"><text text-decoration="none" x="0.004999928474425985" fill="#ffffff" font-size="10pt" font-family="lt_regular"  y="14.40000057220459">Autenticaci&#xF3;n&#160;</text><text text-decoration="none" x="84.60500007152558" fill="#ffffff" font-size="10pt" font-family="lt_regular"  y="14.40000057220459">de&#160;</text><text text-decoration="none" x="21.111249618530273" fill="#ffffff" font-size="10pt" font-family="lt_regular"  y="32.80000019073486">Facebook</text><text text-decoration="none" x="77.99875038146973" fill="#4b4b4b" font-size="10pt" font-family="noto_regular"  y="32.80000019073486"></text></g></g><g id="KNNLRU2P4mS"><mask id="ff73a" x="396" y="366" width="68" height="108" maskUnits="userSpaceOnUse"><rect x="396" y="366" width="68" height="108" fill="white" /><rect x="401.78" y="387.8049839916728" width="16.439999999999998" height="24.4" fill="black" /></mask><g mask="url(#ff73a)"><path d="M 450,380 L 419.99999968942046,380.0074769193253 Q 410,380.0099692256639 410,390.0099692256639 L 410,460" fill="none" stroke="#f4f4f4" stroke-width="2" stroke-linecap="round" stroke-linejoin="round" stroke-dasharray="0 0"/><path d="M 410,460 L 415.75,451.30434782608694 L 404.25,451.30434782608694 Z" fill="rgb(244,244,244)" stroke="#f4f4f4" stroke-width="2" stroke-linecap="round" stroke-linejoin="round"/></g><g transform="translate(404.78, 390.8049839916728)" width="10.44" height="18.4"><text text-decoration="none" x="0.0012499999999997513" fill="#ffffff" font-size="10pt" font-family="lt_regular"  y="14.40000057220459">S&#xED;</text><text text-decoration="none" x="10.438749999999999" fill="#4b4b4b" font-size="10pt" font-family="noto_regular"  y="14.40000057220459"></text></g></g><g id="dCpmNIYXmVv"><g transform="translate(558.020262633799 450)"><path d="M 75.98986868310065,0 L 0,40 L 75.98986868310065,80 L 151.9797373662013,40 L 75.98986868310065,0 Z" fill="rgb(237,151,79)" stroke="#ed974f" stroke-width="2" stroke-linecap="round" stroke-linejoin="round" stroke-dasharray="0 0"/></g><g transform="translate(568.6151313168997, 471.6) rotate(0, 65.395, 18.4)" width="130.79" height="36.8"><text text-decoration="none" x="0.001250166893001392" fill="#ffffff" font-size="10pt" font-family="lt_regular"  y="14.40000057220459">&#xBF;Iniciar&#160;</text><text text-decoration="none" x="44.66375030994415" fill="#ffffff" font-size="10pt" font-family="lt_regular"  y="14.40000057220459">sesi&#xF3;n&#160;</text><text text-decoration="none" x="84.8262504529953" fill="#ffffff" font-size="10pt" font-family="lt_regular"  y="14.40000057220459">a&#160;</text><text text-decoration="none" x="94.86375059604644" fill="#ffffff" font-size="10pt" font-family="lt_regular"  y="14.40000057220459">trav&#xE9;s&#160;</text><text text-decoration="none" x="32.48249878406524" fill="#ffffff" font-size="10pt" font-family="lt_regular"  y="32.80000019073486">de&#160;</text><text text-decoration="none" x="50.39499892711639" fill="#ffffff" font-size="10pt" font-family="lt_regular"  y="32.80000019073486">Google?</text><text text-decoration="none" x="98.30750121593475" fill="#4b4b4b" font-size="10pt" font-family="noto_regular"  y="32.80000019073486"></text></g></g><g id="PkAM9Pfbc2J"><mask id="d71dc" x="586" y="366" width="62" height="98" maskUnits="userSpaceOnUse"><rect x="586" y="366" width="62" height="98" fill="white" /><rect x="622.1375272049412" y="385.7999184019834" width="23.74" height="24.4" fill="black" /></mask><g mask="url(#d71dc)"><path d="M 600,380 L 624.0101317465114,380.00703797404867 Q 634.0101313168997,380.0099692256639 634.0086837797745,390.00996912089573 L 634,450" fill="none" stroke="#ffffff" stroke-width="2" stroke-linecap="round" stroke-linejoin="round" stroke-dasharray="0 0"/><path d="M 634,450 L 639.75,441.30434782608694 L 628.25,441.30434782608694 Z" fill="rgb(255,255,255)" stroke="#ffffff" stroke-width="2" stroke-linecap="round" stroke-linejoin="round"/></g><g transform="translate(625.1375272049412, 388.7999184019834)" width="17.74" height="18.4"><text text-decoration="none" x="0.0012494277954093747" fill="#ffffff" font-size="10pt" font-family="lt_regular"  y="14.40000057220459">No</text><text text-decoration="none" x="17.738750572204587" fill="#4b4b4b" font-size="10pt" font-family="noto_regular"  y="14.40000057220459"></text></g></g><g id="GXYbW5HhMLj"><g transform="translate(575 600.9989223809432)"><rect x="0" y="0" width="120" height="60" fill="rgb(131,140,241)" stroke="#838cf1" stroke-width="2" stroke-linecap="round" stroke-linejoin="round" stroke-dasharray="0 0"/></g><g transform="translate(585.445, 612.5989223809432) rotate(0, 49.555, 18.4)" width="99.11" height="36.8"><text text-decoration="none" x="0.004999928474425985" fill="#ffffff" font-size="10pt" font-family="lt_regular"  y="14.40000057220459">Autenticaci&#xF3;n&#160;</text><text text-decoration="none" x="84.60500007152558" fill="#ffffff" font-size="10pt" font-family="lt_regular"  y="14.40000057220459">de&#160;</text><text text-decoration="none" x="28.579999618530273" fill="#ffffff" font-size="10pt" font-family="lt_regular"  y="32.80000019073486">Google</text><text text-decoration="none" x="70.53000038146973" fill="#4b4b4b" font-size="10pt" font-family="noto_regular"  y="32.80000019073486"></text></g></g><g id="ovbGyH3YJjw"><mask id="1b4ae" x="620" y="516" width="29" height="99" maskUnits="userSpaceOnUse"><rect x="620" y="516" width="29" height="99" fill="white" /><rect x="626.5085025530276" y="552.9369903305255" width="16.439999999999998" height="24.4" fill="black" /></mask><g mask="url(#1b4ae)"><path d="M 634,530 L 634.0072773816153,555.4994615977189 Q 634.0075938084632,556.6082002461136 635,565 Q 635,575 635,575.4994611904716 L 635,601" fill="none" stroke="#ffffff" stroke-width="2" stroke-linecap="round" stroke-linejoin="round" stroke-dasharray="0 0"/><path d="M 635,601 L 640.75,592.304347826087 L 629.25,592.304347826087 Z" fill="rgb(255,255,255)" stroke="#ffffff" stroke-width="2" stroke-linecap="round" stroke-linejoin="round"/></g><g transform="translate(629.5085025530276, 555.9369903305255)" width="10.44" height="18.4"><text text-decoration="none" x="0.0012499999999997513" fill="#ffffff" font-size="10pt" font-family="lt_regular"  y="14.40000057220459">S&#xED;</text><text text-decoration="none" x="10.438749999999999" fill="#4b4b4b" font-size="10pt" font-family="noto_regular"  y="14.40000057220459"></text></g></g><g id="e5pc1Uo2dTk"><g transform="translate(770 470)"><path d="M 20,40 L 20,40 L 20,40 A 20 20 0 0 1 0 20.000000000000004 L 0,20 L 0,20.000000000000004 A 20 20 0 0 1 20 0 L 80,0 L 80,0 L 80,0 A 20 20 0 0 1 100 20 L 100,20 L 100,20 A 20 20 0 0 1 80 40 L 20,40 Z" fill="rgb(239,168,176)" stroke="#efa8b0" stroke-width="2" stroke-linecap="round" stroke-linejoin="round" stroke-dasharray="0 0"/></g><g transform="translate(802.86, 480.8) rotate(0, 17.14, 9.2)" width="34.28" height="18.4"><text text-decoration="none" x="0.0024992370605474434" fill="#ffffff" font-size="10pt" font-family="lt_regular"  y="14.40000057220459">Salida</text><text text-decoration="none" x="34.277500762939454" fill="#4b4b4b" font-size="10pt" font-family="noto_regular"  y="14.40000057220459"></text></g></g><g id="OsdYovsgktR"><mask id="c01ff" x="696" y="476" width="88" height="28" maskUnits="userSpaceOnUse"><rect x="696" y="476" width="88" height="28" fill="white" /><rect x="728.13" y="477.8" width="23.74" height="24.4" fill="black" /></mask><g mask="url(#c01ff)"><path d="M 710,490 L 770,490" fill="none" stroke="#ffffff" stroke-width="2" stroke-linecap="round" stroke-linejoin="round" stroke-dasharray="0 0"/><path d="M 770,490 L 761.304347826087,484.25 L 761.304347826087,495.75 Z" fill="rgb(255,255,255)" stroke="#ffffff" stroke-width="2" stroke-linecap="round" stroke-linejoin="round"/></g><g transform="translate(731.13, 480.8)" width="17.74" height="18.4"><text text-decoration="none" x="0.0012494277954093747" fill="#ffffff" font-size="10pt" font-family="lt_regular"  y="14.40000057220459">No</text><text text-decoration="none" x="17.738750572204587" fill="#4b4b4b" font-size="10pt" font-family="noto_regular"  y="14.40000057220459"></text></g></g><g id="fpkmxFeChN5"><g transform="translate(750 700)"><rect x="0" y="0" width="120" height="80" fill="rgb(131,140,241)" stroke="#838cf1" stroke-width="2" stroke-linecap="round" stroke-linejoin="round" stroke-dasharray="0 0"/></g><g transform="translate(767.18, 712.4) rotate(0, 42.82, 27.6)" width="85.64" height="55.2"><text text-decoration="none" x="20.213749237060547" fill="#ffffff" font-size="10pt" font-family="lt_regular"  y="14.40000057220459">Usuario&#160;</text><text text-decoration="none" x="12.244999237060547" fill="#ffffff" font-size="10pt" font-family="lt_regular"  y="32.80000019073486">conectado&#160;</text><text text-decoration="none" x="0.0012477111816409092" fill="#ffffff" font-size="10pt" font-family="lt_regular"  y="51.19999980926514">correctamente</text><text text-decoration="none" x="85.63875228881835" fill="#4b4b4b" font-size="10pt" font-family="noto_regular"  y="51.19999980926514"></text></g></g><g id="6MRQerjWixS"><g><path d="M 410,520 L 410,730 Q 410,740 420,740 L 750,740" fill="none" stroke="#f4f4f4" stroke-width="2" stroke-linecap="round" stroke-linejoin="round" stroke-dasharray="0 0"/><path d="M 750,740 L 741.304347826087,734.25 L 741.304347826087,745.75 Z" fill="rgb(244,244,244)" stroke="#f4f4f4" stroke-width="2" stroke-linecap="round" stroke-linejoin="round"/></g></g><g id="AQYY5bjFIlj"><g><path d="M 635,661 L 635,730 Q 635,740 645,740 L 750,740" fill="none" stroke="#ffffff" stroke-width="2" stroke-linecap="round" stroke-linejoin="round" stroke-dasharray="0 0"/><path d="M 750,740 L 741.304347826087,734.25 L 741.304347826087,745.75 Z" fill="rgb(255,255,255)" stroke="#ffffff" stroke-width="2" stroke-linecap="round" stroke-linejoin="round"/></g></g><g id="eZ4ogX2i5Um"><g transform="translate(852.0000000006092 320)"><path d="M 74.999999984473,0 L 0,40 L 74.999999984473,80 L 149.999999968946,40 L 74.999999984473,0 Z" fill="rgb(237,151,79)" stroke="#ed974f" stroke-width="2" stroke-linecap="round" stroke-linejoin="round" stroke-dasharray="0 0"/></g><g transform="translate(877.6899999850823, 341.6) rotate(0, 49.31, 18.4)" width="98.62" height="36.8"><text text-decoration="none" x="0.0037476396560691683" fill="#ffffff" font-size="10pt" font-family="lt_regular"  y="14.40000057220459">&#xBF;Credenciales&#160;</text><text text-decoration="none" x="84.11625236034394" fill="#ffffff" font-size="10pt" font-family="lt_regular"  y="14.40000057220459">de&#160;</text><text text-decoration="none" x="3.366248784065249" fill="#ffffff" font-size="10pt" font-family="lt_regular"  y="32.80000019073486">usuario&#160;</text><text text-decoration="none" x="49.6162504529953" fill="#ffffff" font-size="10pt" font-family="lt_regular"  y="32.80000019073486">v&#xE1;lidas?</text><text text-decoration="none" x="95.25375121593476" fill="#4b4b4b" font-size="10pt" font-family="noto_regular"  y="32.80000019073486"></text></g></g><g id="vq9D4FheSUg"><g><path d="M 926,269 L 925.9999999999999,284.5005388095284 Q 925.9999999999999,285 926,295 Q 926.9999999902785,303.3827456931818 926.9999999909325,304.5005388095284 L 927,320" fill="none" stroke="#ffffff" stroke-width="2" stroke-linecap="round" stroke-linejoin="round" stroke-dasharray="0 0"/><path d="M 927,320 L 932.75,311.30434782608694 L 921.25,311.30434782608694 Z" fill="rgb(255,255,255)" stroke="#ffffff" stroke-width="2" stroke-linecap="round" stroke-linejoin="round"/></g></g><g id="adpotRm6ohq"><mask id="617f9" x="856" y="386" width="85" height="368" maskUnits="userSpaceOnUse"><rect x="856" y="386" width="85" height="368" fill="white" /><rect x="918.7799999912907" y="586.2999999925411" width="16.439999999999998" height="24.4" fill="black" /></mask><g mask="url(#617f9)"><path d="M 927,400 L 926.999999985521,730 Q 926.9999999850822,740 916.9999999850822,740 L 870,740" fill="none" stroke="#ffffff" stroke-width="2" stroke-linecap="round" stroke-linejoin="round" stroke-dasharray="0 0"/><path d="M 870,740 L 878.695652173913,745.75 L 878.695652173913,734.25 Z" fill="rgb(255,255,255)" stroke="#ffffff" stroke-width="2" stroke-linecap="round" stroke-linejoin="round"/></g><g transform="translate(921.7799999912907, 589.2999999925411)" width="10.44" height="18.4"><text text-decoration="none" x="0.0012499999999997513" fill="#ffffff" font-size="10pt" font-family="lt_regular"  y="14.40000057220459">S&#xED;</text><text text-decoration="none" x="10.438749999999999" fill="#4b4b4b" font-size="10pt" font-family="noto_regular"  y="14.40000057220459"></text></g></g><g id="yf3powB03St"><g transform="translate(1072 326.0043104762271)"><rect x="0" y="0" width="120" height="60" fill="rgb(131,140,241)" stroke="#838cf1" stroke-width="2" stroke-linecap="round" stroke-linejoin="round" stroke-dasharray="0 0"/></g><g transform="translate(1082.01, 337.6043104762271) rotate(0, 49.99, 18.4)" width="99.98" height="36.8"><text text-decoration="none" x="0.0024992132186909544" fill="#ffffff" font-size="10pt" font-family="lt_regular"  y="14.40000057220459">Error&#160;</text><text text-decoration="none" x="33.21500050067902" fill="#ffffff" font-size="10pt" font-family="lt_regular"  y="14.40000057220459">de&#160;</text><text text-decoration="none" x="51.127500643730166" fill="#ffffff" font-size="10pt" font-family="lt_regular"  y="14.40000057220459">inicio&#160;</text><text text-decoration="none" x="85.47750078678132" fill="#ffffff" font-size="10pt" font-family="lt_regular"  y="14.40000057220459">de&#160;</text><text text-decoration="none" x="31.615000000000002" fill="#ffffff" font-size="10pt" font-family="lt_regular"  y="32.80000019073486">sesi&#xF3;n</text><text text-decoration="none" x="68.36500000000001" fill="#4b4b4b" font-size="10pt" font-family="noto_regular"  y="32.80000019073486"></text></g></g><g id="laEQae3IUDF"><mask id="5aff2" x="988" y="342" width="98" height="32" maskUnits="userSpaceOnUse"><rect x="988" y="342" width="98" height="32" fill="white" /><rect x="1025.1299999999837" y="345.80215509017535" width="23.74" height="24.4" fill="black" /></mask><g mask="url(#5aff2)"><path d="M 1002,360 L 1026.9999999847776,360 Q 1028.9999999847776,360 1037,358 Q 1045.0043104003018,356.00332469366293 1046.99999990894,356.00307891160065 L 1072,356" fill="none" stroke="#ffffff" stroke-width="2" stroke-linecap="round" stroke-linejoin="round" stroke-dasharray="0 0"/><path d="M 1072,356 L 1063.304347826087,350.25 L 1063.304347826087,361.75 Z" fill="rgb(255,255,255)" stroke="#ffffff" stroke-width="2" stroke-linecap="round" stroke-linejoin="round"/></g><g transform="translate(1028.1299999999837, 348.80215509017535)" width="17.74" height="18.4"><text text-decoration="none" x="0.0012494277954093747" fill="#ffffff" font-size="10pt" font-family="lt_regular"  y="14.40000057220459">No</text><text text-decoration="none" x="17.738750572204587" fill="#4b4b4b" font-size="10pt" font-family="noto_regular"  y="14.40000057220459"></text></g></g><g id="vIkYaW79OOS"><g transform="translate(1067.977469230772 450.99892238094327)"><path d="M 63.01126538461371,0 L 0,40 L 63.01126538461371,80 L 126.02253076922742,40 L 63.01126538461371,0 Z" fill="rgb(237,151,79)" stroke="#ed974f" stroke-width="2" stroke-linecap="round" stroke-linejoin="round" stroke-dasharray="0 0"/></g><g transform="translate(1084.7137346153854, 472.59892238094324) rotate(0, 46.275, 18.4)" width="92.55" height="36.8"><text text-decoration="none" x="1.4305114603985203e-7" fill="#ffffff" font-size="10pt" font-family="lt_regular"  y="14.40000057220459">&#xBF;Ha&#160;</text><text text-decoration="none" x="26.07500066757202" fill="#ffffff" font-size="10pt" font-family="lt_regular"  y="14.40000057220459">olvidado&#160;</text><text text-decoration="none" x="79.35000004768372" fill="#ffffff" font-size="10pt" font-family="lt_regular"  y="14.40000057220459">su&#160;</text><text text-decoration="none" x="11.068750762939452" fill="#ffffff" font-size="10pt" font-family="lt_regular"  y="32.80000019073486">contrase&#xF1;a?</text><text text-decoration="none" x="81.48124923706055" fill="#4b4b4b" font-size="10pt" font-family="noto_regular"  y="32.80000019073486"></text></g></g><g id="UcGXaUzROg2"><g><path d="M 1132,386 L 1132,408.5016164285852 Q 1132,409.6189284638986 1131,419 Q 1130.9920282537514,428.00310498206903 1130.9922010597743,428.5016158277733 L 1131,451" fill="none" stroke="#ffffff" stroke-width="2" stroke-linecap="round" stroke-linejoin="round" stroke-dasharray="0 0"/><path d="M 1131,451 L 1136.75,442.30434782608694 L 1125.25,442.30434782608694 Z" fill="rgb(255,255,255)" stroke="#ffffff" stroke-width="2" stroke-linecap="round" stroke-linejoin="round"/></g></g><g id="oXLA90Aj9LR"><g transform="translate(1075 577.0032328571704)"><rect x="0" y="0" width="120" height="60" fill="rgb(131,140,241)" stroke="#838cf1" stroke-width="2" stroke-linecap="round" stroke-linejoin="round" stroke-dasharray="0 0"/></g><g transform="translate(1100.785, 588.6032328571704) rotate(0, 34.215, 18.4)" width="68.43" height="36.8"><text text-decoration="none" x="0.0024984741210971606" fill="#ffffff" font-size="10pt" font-family="lt_regular"  y="14.40000057220459">Restablecer&#160;</text><text text-decoration="none" x="1.989997711181644" fill="#ffffff" font-size="10pt" font-family="lt_regular"  y="32.80000019073486">contrase&#xF1;a</text><text text-decoration="none" x="66.44000228881836" fill="#4b4b4b" font-size="10pt" font-family="noto_regular"  y="32.80000019073486"></text></g></g><g id="ADlueO0uCf2"><mask id="da99a" x="1117" y="517" width="32" height="74" maskUnits="userSpaceOnUse"><rect x="1117" y="517" width="32" height="74" fill="white" /><rect x="1124.7732883110325" y="541.8000035960664" width="16.439999999999998" height="24.4" fill="black" /></mask><g mask="url(#da99a)"><path d="M 1131,531 L 1130.9936323786337,544.0010788184611 Q 1130.992647308324,546.0123442505331 1133,554 Q 1135,562.0010773287411 1135,564.0010776190568 L 1135,577" fill="none" stroke="#ffffff" stroke-width="2" stroke-linecap="round" stroke-linejoin="round" stroke-dasharray="0 0"/><path d="M 1135,577 L 1140.75,568.304347826087 L 1129.25,568.304347826087 Z" fill="rgb(255,255,255)" stroke="#ffffff" stroke-width="2" stroke-linecap="round" stroke-linejoin="round"/></g><g transform="translate(1127.7732883110325, 544.8000035960664)" width="10.44" height="18.4"><text text-decoration="none" x="0.0012499999999997513" fill="#ffffff" font-size="10pt" font-family="lt_regular"  y="14.40000057220459">S&#xED;</text><text text-decoration="none" x="10.438749999999999" fill="#4b4b4b" font-size="10pt" font-family="noto_regular"  y="14.40000057220459"></text></g></g><g id="Hnue65mjUGN"><mask id="c4e14" x="972" y="215" width="256" height="290" maskUnits="userSpaceOnUse"><rect x="972" y="215" width="256" height="290" fill="white" />undefined<rect x="1202.1299999999994" y="468.7989224099741" width="23.74" height="24.4" fill="black" />undefined</mask><g mask="url(#c4e14)"><path d="M 1194,491 L 1204.000000014515,490.9994611904708 Q 1213.9999999999993,490.9989223809432 1213.9999999999993,480.9989223809432 L 1214,360 L 1213.9999999999993,239.0010776190568 Q 1213.9999999999993,229.0010776190568 1204.000000000111,229.00103035506308 L 986,229" fill="none" stroke="#ffffff" stroke-width="2" stroke-linecap="round" stroke-linejoin="round" stroke-dasharray="0 0"/><path d="M 986,229 L 994.695652173913,234.75 L 994.695652173913,223.25 Z" fill="rgb(255,255,255)" stroke="#ffffff" stroke-width="2" stroke-linecap="round" stroke-linejoin="round"/></g>undefined<g transform="translate(1205.1299999999994, 471.7989224099741)" width="17.74" height="18.4"><text text-decoration="none" x="0.0012494277954093747" fill="#ffffff" font-size="10pt" font-family="lt_regular"  y="14.40000057220459">No</text><text text-decoration="none" x="17.738750572204587" fill="#4b4b4b" font-size="10pt" font-family="noto_regular"  y="14.40000057220459"></text></g>undefined</g></svg>